<svg xmlns="http://www.w3.org/2000/svg" xmlns:xlink="http://www.w3.org/1999/xlink" width="1080" zoomAndPan="magnify" viewBox="0 0 810 809.999993" height="1080" preserveAspectRatio="xMidYMid meet" version="1.0"><defs><g/></defs><rect x="-81" width="972" fill="#ffffff" y="-80.999999" height="971.999992" fill-opacity="1"/><rect x="-81" width="972" fill="#ffffff" y="-80.999999" height="971.999992" fill-opacity="1"/><g fill="#fb6900" fill-opacity="1"><g transform="translate(210.329129, 429.623745)"><g><path d="M 0.5 0 L 11.6875 -70.5 L 51.1875 -70.5 L 49.109375 -57.03125 L 25.84375 -57.03125 L 23.46875 -42.078125 L 42.78125 -42.078125 L 40.890625 -30.296875 L 21.578125 -30.296875 L 18.90625 -13.5625 L 43.171875 -13.5625 L 41 0 Z M 0.5 0 "/></g></g></g><g fill="#fb6900" fill-opacity="1"><g transform="translate(250.332756, 429.623745)"><g><path d="M 16.4375 0 L 20.390625 -24.859375 L 7.71875 -70.5 L 25.25 -70.5 L 30.984375 -39.90625 L 31.1875 -39.90625 L 46.140625 -70.5 L 64.15625 -70.5 L 37.328125 -24.859375 L 33.375 0 Z M 16.4375 0 "/></g></g></g><g fill="#fb6900" fill-opacity="1"><g transform="translate(300.733498, 429.623745)"><g><path d="M 0.5 0 L 11.6875 -70.5 L 51.1875 -70.5 L 49.109375 -57.03125 L 25.84375 -57.03125 L 23.46875 -42.078125 L 42.78125 -42.078125 L 40.890625 -30.296875 L 21.578125 -30.296875 L 18.90625 -13.5625 L 43.171875 -13.5625 L 41 0 Z M 0.5 0 "/></g></g></g><g fill="#fb6900" fill-opacity="1"><g transform="translate(347.996909, 429.623745)"><g><path d="M 16.046875 0 L 7.71875 -70.5 L 25.25 -70.5 L 29.5 -16.4375 L 29.703125 -16.4375 L 51.09375 -70.5 L 68.71875 -70.5 L 38.21875 0 Z M 16.046875 0 "/></g></g></g><g fill="#fb6900" fill-opacity="1"><g transform="translate(403.051598, 429.623745)"><g><path d="M 0.5 0 L 11.6875 -70.5 L 28.609375 -70.5 L 17.421875 0 Z M 0.5 0 "/></g></g></g><g fill="#fb6900" fill-opacity="1"><g transform="translate(421.864912, 429.623745)"><g><path d="M 0.5 0 L 11.6875 -70.5 L 51.1875 -70.5 L 49.109375 -57.03125 L 25.84375 -57.03125 L 23.46875 -42.078125 L 42.78125 -42.078125 L 40.890625 -30.296875 L 21.578125 -30.296875 L 18.90625 -13.5625 L 43.171875 -13.5625 L 41 0 Z M 0.5 0 "/></g></g></g><g fill="#fb6900" fill-opacity="1"><g transform="translate(461.868534, 429.623745)"><g><path d="M 12.171875 0 L 7.71875 -70.5 L 24.859375 -70.5 L 25.84375 -17.71875 L 26.046875 -17.71875 L 44.65625 -70.5 L 64.953125 -70.5 L 67.03125 -17.71875 L 67.234375 -17.71875 L 84.65625 -70.5 L 101.890625 -70.5 L 74.953125 0 L 53.859375 0 L 52.078125 -51.984375 L 51.890625 -51.984375 L 33.375 0 Z M 12.171875 0 "/></g></g></g><g fill="#fb6900" fill-opacity="1"><g transform="translate(547.16112, 428.123235)"><g><path d="M 4.328125 0 C 4.984375 0 5.625 -0.359375 6.203125 -0.71875 C 6.5625 -0.9375 6.921875 -1.21875 7.21875 -1.59375 C 7.578125 -1.875 7.859375 -2.15625 8.21875 -2.453125 C 8.734375 -2.734375 9.09375 -3.171875 9.375 -3.609375 C 9.671875 -3.890625 9.875 -4.1875 10.171875 -4.40625 C 10.609375 -4.828125 10.96875 -5.265625 11.328125 -5.703125 C 11.609375 -5.984375 11.90625 -6.34375 12.1875 -6.640625 C 12.546875 -7.140625 12.984375 -7.578125 13.34375 -8 C 13.421875 -8.078125 13.5625 -8.359375 13.703125 -8.359375 C 13.84375 -8.359375 13.921875 -8.296875 13.921875 -8.15625 C 13.921875 -7.859375 13.625 -7.359375 13.625 -7.140625 C 13.5625 -6.859375 13.484375 -6.484375 13.484375 -6.125 C 13.484375 -5.484375 13.703125 -4.90625 13.84375 -4.328125 C 13.921875 -3.890625 14.0625 -3.890625 14.359375 -3.53125 C 14.640625 -3.171875 14.859375 -2.734375 15.078125 -2.375 C 15.21875 -2.015625 15.359375 -1.734375 15.71875 -1.4375 C 16.078125 -1.15625 16.515625 -0.9375 16.953125 -0.71875 C 17.3125 -0.578125 17.59375 -0.28125 17.953125 -0.21875 C 18.109375 -0.140625 18.171875 -0.140625 18.3125 -0.140625 C 18.6875 -0.140625 19.046875 -0.28125 19.328125 -0.359375 C 19.828125 -0.5 20.265625 -0.65625 20.703125 -0.796875 C 21.5 -1.15625 22.4375 -1.515625 23.15625 -2.015625 C 23.953125 -2.59375 24.734375 -3.25 25.53125 -3.890625 C 26.25 -4.546875 27.1875 -5.265625 27.765625 -6.0625 C 28.0625 -6.421875 28.265625 -6.78125 28.5625 -7.140625 C 28.703125 -7.359375 29.203125 -7.71875 29.28125 -8 C 29.28125 -8 29.28125 -8.078125 29.28125 -8.078125 C 29.28125 -8.15625 29.28125 -8.21875 29.203125 -8.21875 C 28.921875 -8.21875 28.125 -7.578125 28.0625 -7.5 C 27.90625 -7.421875 26.90625 -6.859375 26.46875 -6.859375 C 26.328125 -6.859375 26.25 -6.921875 26.25 -7 C 26.25 -7.140625 26.546875 -7.28125 26.546875 -7.359375 C 26.546875 -7.5 26.46875 -7.5 26.390625 -7.5 C 26.1875 -7.5 25.671875 -7.140625 25.609375 -7.0625 C 25.53125 -7.0625 25.171875 -6.859375 24.953125 -6.859375 C 24.890625 -6.859375 24.8125 -6.859375 24.8125 -6.921875 C 24.8125 -7.140625 25.171875 -7.28125 25.171875 -7.421875 C 25.03125 -7.421875 24.953125 -7.359375 24.8125 -7.359375 C 24.671875 -7.28125 24.515625 -7.28125 24.375 -7.28125 C 24.09375 -7.21875 23.796875 -7 23.578125 -6.859375 C 22.9375 -6.421875 22.21875 -6.125 21.640625 -5.703125 C 21.125 -5.34375 20.40625 -4.984375 19.765625 -4.6875 C 19.046875 -4.328125 18.3125 -4.109375 17.953125 -4.109375 C 17.53125 -4.109375 17.234375 -4.1875 17.234375 -4.46875 C 17.234375 -4.828125 17.53125 -5.265625 17.59375 -5.546875 C 17.890625 -6.0625 18.03125 -6.78125 18.25 -7.359375 C 18.46875 -7.9375 18.828125 -8.515625 19.109375 -9.09375 C 19.40625 -9.8125 19.6875 -10.53125 20.046875 -11.25 C 20.484375 -12.109375 20.921875 -13.046875 21.28125 -14 C 21.640625 -14.78125 21.921875 -15.71875 22.4375 -16.4375 C 22.578125 -16.734375 22.640625 -17.015625 22.640625 -17.3125 C 22.640625 -17.890625 22.4375 -18.46875 22.21875 -18.890625 C 22.0625 -19.109375 21.78125 -19.625 21.5625 -19.765625 C 21.5 -19.828125 21.421875 -19.828125 21.34375 -19.828125 C 21.125 -19.828125 20.921875 -19.765625 20.765625 -19.984375 C 20.703125 -20.125 20.703125 -20.265625 20.703125 -20.40625 C 20.703125 -20.5625 20.625 -20.625 20.484375 -20.625 C 20.34375 -20.625 20.1875 -20.484375 20.125 -20.484375 C 19.984375 -20.484375 20.046875 -20.625 20.046875 -20.765625 C 20.046875 -20.921875 19.984375 -20.984375 19.828125 -20.984375 C 19.6875 -20.984375 19.625 -20.921875 19.46875 -20.921875 C 19.1875 -20.921875 19.1875 -21.640625 18.96875 -21.921875 C 18.75 -22.21875 18.46875 -22.5 18.109375 -22.71875 C 17.75 -22.9375 17.3125 -23.15625 16.875 -23.15625 C 16.65625 -23.15625 16.515625 -23.15625 16.296875 -23.15625 C 15.9375 -23.15625 15.578125 -23.15625 15.296875 -23.078125 C 14.859375 -22.9375 14.5625 -22.640625 14.203125 -22.4375 C 13.421875 -22 12.6875 -21.421875 11.96875 -20.84375 C 11.609375 -20.5625 11.171875 -20.34375 10.8125 -19.984375 C 10.53125 -19.6875 10.234375 -19.328125 9.875 -19.109375 C 9.734375 -18.96875 9.59375 -18.890625 9.515625 -18.75 C 9.453125 -18.609375 9.453125 -18.46875 9.375 -18.3125 C 9.234375 -18.171875 9.09375 -18.25 8.9375 -18.171875 C 8.796875 -18.03125 8.65625 -17.953125 8.515625 -17.8125 C 8.21875 -17.453125 8 -17.015625 7.71875 -16.734375 C 7.421875 -16.4375 7.0625 -16.15625 6.78125 -15.875 C 6.484375 -15.5 6.203125 -15.140625 5.984375 -14.78125 C 5.765625 -14.359375 5.703125 -13.921875 5.484375 -13.5625 C 5.34375 -13.34375 5.1875 -13.203125 5.125 -13.046875 C 5.046875 -12.90625 4.984375 -12.6875 4.90625 -12.625 C 4.765625 -12.484375 4.6875 -12.484375 4.609375 -12.328125 C 4.546875 -12.265625 4.609375 -12.1875 4.546875 -12.109375 C 4.546875 -12.046875 4.40625 -12.046875 4.328125 -11.96875 C 4.25 -11.828125 3.96875 -11.546875 3.75 -11.390625 C 3.390625 -11.109375 3.390625 -10.75 3.171875 -10.390625 C 3.03125 -10.03125 2.734375 -9.734375 2.453125 -9.453125 C 2.15625 -9.015625 1.875 -8.65625 1.65625 -8.21875 C 1.59375 -7.9375 1.59375 -7.796875 1.4375 -7.578125 C 1.375 -7.421875 1.21875 -7.28125 1.15625 -7.0625 C 1.015625 -6.703125 0.859375 -6.28125 0.796875 -5.84375 C 0.71875 -5.625 0.65625 -5.40625 0.5 -5.1875 C 0.4375 -5.046875 0.28125 -4.984375 0.21875 -4.828125 C 0.21875 -4.765625 0.21875 -4.765625 0.21875 -4.6875 C 0.21875 -4.328125 0.5 -3.890625 0.578125 -3.609375 C 0.71875 -3.171875 0.65625 -2.8125 0.9375 -2.453125 C 1.15625 -2.15625 1.375 -1.953125 1.59375 -1.65625 C 2.09375 -0.796875 2.734375 -0.4375 3.609375 -0.140625 C 3.828125 -0.078125 4.109375 0 4.328125 0 Z M 3.53125 -3.03125 C 3.390625 -3.03125 3.25 -3.09375 3.25 -3.3125 C 3.25 -3.53125 3.390625 -3.828125 3.46875 -4.03125 C 3.828125 -5.046875 4.328125 -5.921875 4.90625 -6.78125 C 5.265625 -7.359375 5.703125 -7.9375 6.125 -8.515625 C 6.484375 -9.015625 6.921875 -9.515625 7.28125 -10.09375 C 7.71875 -10.671875 8.15625 -11.171875 8.65625 -11.75 C 9.09375 -12.1875 9.453125 -12.546875 9.875 -12.984375 C 10.3125 -13.421875 10.75 -13.84375 11.171875 -14.359375 C 11.46875 -14.71875 11.828125 -15.140625 12.1875 -15.5 C 12.6875 -16.078125 13.265625 -16.515625 13.84375 -16.953125 C 14.28125 -17.234375 14.71875 -17.53125 15.140625 -17.890625 C 15.578125 -18.171875 15.9375 -18.53125 16.4375 -18.828125 C 16.8125 -19.046875 17.234375 -19.25 17.75 -19.25 C 17.8125 -19.25 18.109375 -19.328125 18.3125 -19.328125 C 18.390625 -19.328125 18.46875 -19.328125 18.46875 -19.1875 C 18.46875 -19.046875 18.46875 -18.890625 18.390625 -18.828125 C 18.25 -18.6875 18.171875 -18.609375 18.109375 -18.46875 C 18.03125 -18.171875 18.03125 -17.953125 17.8125 -17.75 C 17.671875 -17.453125 17.453125 -17.234375 17.234375 -17.015625 C 17.171875 -16.953125 16.734375 -16.59375 16.734375 -16.515625 C 16.734375 -16.296875 17.015625 -16.375 17.015625 -16.234375 C 17.015625 -16.078125 16.8125 -15.875 16.734375 -15.796875 C 16.65625 -15.71875 16.4375 -15.5 16.296875 -15.5 C 16.15625 -15.5 16.375 -15.796875 16.375 -15.875 C 16.375 -15.9375 16.375 -15.9375 16.375 -15.9375 C 16.234375 -15.9375 16.078125 -15.875 16.015625 -15.796875 C 15.9375 -15.65625 15.875 -15.578125 15.9375 -15.5 C 15.9375 -15.4375 16.078125 -15.359375 16.078125 -15.21875 C 16.078125 -15.078125 15.9375 -14.9375 15.875 -14.859375 C 15.65625 -14.5625 15.4375 -14.140625 15.078125 -14 C 15 -13.921875 14.9375 -13.921875 14.9375 -13.921875 C 14.859375 -13.921875 14.78125 -13.921875 14.859375 -14 C 14.859375 -14.0625 14.859375 -14.140625 14.9375 -14.203125 C 15.078125 -14.5 15.296875 -14.640625 15.5 -14.859375 C 15.5 -14.9375 15.65625 -15.078125 15.65625 -15.140625 C 15.65625 -15.140625 15.578125 -15.21875 15.578125 -15.21875 C 15.4375 -15.21875 15.078125 -14.640625 15.078125 -14.5625 C 14.640625 -14.140625 14.28125 -13.703125 13.84375 -13.34375 C 13.78125 -13.203125 13.5625 -13.046875 13.421875 -12.90625 C 13.265625 -12.765625 13.125 -12.546875 13.125 -12.40625 C 13.125 -12.1875 13.203125 -12.109375 13.203125 -11.96875 C 13.203125 -11.6875 12.90625 -11.546875 12.6875 -11.328125 C 12.546875 -11.171875 12.265625 -10.75 12.046875 -10.75 C 11.96875 -10.75 11.96875 -10.75 11.96875 -10.75 C 11.96875 -10.890625 12.1875 -11.109375 12.265625 -11.171875 C 12.328125 -11.25 12.765625 -11.609375 12.765625 -11.828125 C 12.765625 -11.828125 12.6875 -11.90625 12.6875 -11.90625 C 12.265625 -11.90625 11.828125 -11.109375 11.609375 -10.75 C 11.328125 -10.3125 11.171875 -9.875 10.96875 -9.375 C 10.96875 -9.234375 10.890625 -9.15625 10.8125 -9.15625 C 10.671875 -9.15625 10.53125 -9.296875 10.390625 -9.296875 C 10.3125 -9.296875 10.234375 -9.296875 10.171875 -9.234375 C 10.09375 -9.15625 10.09375 -9.015625 10.03125 -8.875 C 9.953125 -8.875 9.875 -8.796875 9.8125 -8.796875 C 9.59375 -8.65625 9.515625 -8.578125 9.375 -8.359375 C 9.15625 -8.15625 8.9375 -8 8.796875 -7.796875 C 8.65625 -7.578125 8.65625 -7.359375 8.515625 -7.140625 C 8.296875 -6.78125 7.796875 -6.703125 7.5 -6.421875 C 7.0625 -6.0625 6.78125 -5.546875 6.34375 -5.1875 C 5.984375 -4.90625 5.703125 -4.6875 5.34375 -4.40625 C 4.984375 -4.109375 4.765625 -3.75 4.46875 -3.46875 C 4.328125 -3.3125 3.828125 -3.03125 3.53125 -3.03125 Z M 13.921875 -11.109375 C 13.84375 -11.109375 13.78125 -11.171875 13.78125 -11.328125 C 13.78125 -11.609375 14.203125 -11.90625 14.359375 -12.046875 C 14.640625 -12.328125 14.859375 -12.6875 15.140625 -12.984375 C 15.21875 -13.046875 15.796875 -13.703125 15.9375 -13.703125 C 16.015625 -13.703125 16.015625 -13.625 16.015625 -13.5625 C 16.015625 -13.421875 15.875 -13.203125 15.71875 -12.984375 C 15.4375 -12.6875 15.140625 -12.40625 14.859375 -12.109375 C 14.78125 -12.046875 14.203125 -11.109375 13.921875 -11.109375 Z M 13.921875 -11.109375 "/></g></g></g><g fill="#fb6900" fill-opacity="1"><g transform="translate(567.858826, 428.123235)"><g><path d="M 21.5 0.4375 C 22.140625 0.4375 22.9375 0.140625 23.4375 -0.359375 C 23.65625 -0.578125 23.734375 -0.796875 23.796875 -1.078125 C 23.953125 -1.375 24.015625 -1.65625 24.234375 -1.953125 C 24.734375 -2.59375 25.390625 -3.09375 26.03125 -3.671875 C 26.609375 -4.1875 27.1875 -4.6875 27.703125 -5.265625 C 28.125 -5.84375 28.34375 -6.28125 28.484375 -7 C 28.5625 -7.5 28.640625 -7.640625 29 -7.9375 C 29.140625 -8.15625 29.859375 -8.65625 29.859375 -8.9375 C 29.859375 -9.09375 29.78125 -9.09375 29.71875 -9.09375 C 29.640625 -9.09375 29.5 -9.015625 29.359375 -8.875 C 29.203125 -8.734375 28.78125 -8.296875 28.484375 -8.296875 C 28.34375 -8.296875 28.265625 -8.359375 28.265625 -8.515625 C 28.265625 -8.796875 29 -9.375 29.140625 -9.515625 C 29.28125 -9.59375 29.78125 -10.03125 29.78125 -10.171875 C 29.78125 -10.3125 29.78125 -10.3125 29.640625 -10.3125 C 29.578125 -10.3125 29.359375 -10.234375 29.28125 -10.171875 C 29 -9.953125 28.703125 -9.734375 28.421875 -9.515625 C 28.125 -9.296875 27.90625 -9.015625 27.703125 -8.796875 C 27.484375 -8.578125 27.328125 -8.296875 27.125 -8.078125 C 26.90625 -7.796875 26.609375 -7.578125 26.328125 -7.28125 C 25.671875 -6.859375 25.03125 -6.34375 24.453125 -5.84375 C 24.09375 -5.625 23.375 -4.828125 22.859375 -4.828125 C 22.71875 -4.828125 22.578125 -4.984375 22.5 -5.046875 C 22.359375 -5.1875 22.28125 -5.34375 22.0625 -5.34375 C 22 -5.34375 21.921875 -5.265625 21.78125 -5.125 C 21.5 -4.828125 21.125 -4.546875 20.703125 -4.328125 C 20.265625 -4.109375 19.828125 -3.96875 19.40625 -3.96875 C 19.109375 -3.96875 18.6875 -4.109375 18.390625 -4.40625 C 17.8125 -4.90625 17.8125 -5.921875 17.8125 -6.703125 C 17.8125 -7.359375 17.953125 -7.640625 17.953125 -8.296875 C 17.953125 -8.515625 17.8125 -8.65625 17.8125 -8.875 C 17.8125 -9.15625 18.109375 -9.375 18.25 -9.734375 C 18.390625 -10.09375 18.46875 -10.453125 18.53125 -10.8125 C 18.6875 -11.46875 18.75 -12.1875 18.890625 -12.84375 C 19.109375 -13.625 19.625 -14.28125 19.90625 -15.078125 C 20.265625 -15.796875 20.5625 -16.515625 20.984375 -17.234375 C 21.703125 -18.75 22.4375 -20.1875 23.21875 -21.703125 C 24.15625 -23.15625 25.03125 -24.671875 25.96875 -26.1875 C 26.90625 -27.625 27.703125 -29.140625 28.640625 -30.515625 C 28.84375 -30.875 29.0625 -31.078125 29.203125 -31.453125 C 29.359375 -31.8125 29.578125 -31.953125 29.71875 -32.234375 C 30.140625 -32.8125 30.359375 -33.46875 30.796875 -34.046875 C 31.234375 -34.6875 31.734375 -35.265625 32.03125 -36.0625 C 32.234375 -36.78125 32.59375 -37.359375 32.8125 -38.078125 C 33.03125 -38.65625 32.96875 -39.375 32.96875 -39.953125 C 32.96875 -40.09375 32.890625 -40.25 32.890625 -40.3125 C 32.890625 -40.46875 32.890625 -40.53125 32.890625 -40.609375 C 32.890625 -40.96875 32.75 -41.1875 32.3125 -41.1875 C 32.09375 -41.1875 31.875 -41.109375 31.734375 -41.109375 C 31.515625 -41.109375 31.375 -41.1875 31.296875 -41.6875 C 31.234375 -42.046875 31.15625 -42.1875 30.875 -42.265625 C 30.796875 -42.265625 30.65625 -42.1875 30.515625 -42.1875 C 29.9375 -41.984375 29.578125 -41.546875 29.359375 -41.109375 C 29.0625 -40.53125 28.921875 -39.890625 28.5625 -39.3125 C 28.0625 -38.515625 27.625 -37.796875 27.1875 -37 C 26.96875 -36.640625 26.828125 -36.28125 26.609375 -35.921875 C 26.46875 -35.703125 26.390625 -35.40625 26.25 -35.203125 C 26.109375 -34.90625 25.890625 -34.765625 25.828125 -34.46875 C 25.671875 -34.1875 25.609375 -33.96875 25.390625 -33.6875 C 25.03125 -33.109375 24.8125 -32.453125 24.453125 -31.8125 C 24.09375 -31.234375 23.734375 -30.515625 23.15625 -30.140625 C 23.078125 -30.078125 22.859375 -30 22.71875 -29.859375 C 22.578125 -29.78125 22.4375 -29.71875 22.4375 -29.578125 C 22.4375 -29.359375 22.5 -29.421875 22.5 -29.203125 C 22.5 -29 22.359375 -28.640625 22.140625 -28.265625 C 21.921875 -27.984375 21.78125 -27.703125 21.640625 -27.484375 C 21.203125 -26.828125 20.765625 -26.109375 20.34375 -25.453125 C 19.828125 -24.671875 19.40625 -23.875 18.96875 -23.15625 C 18.75 -22.796875 18.390625 -21.921875 17.953125 -21.921875 C 17.671875 -21.921875 17.375 -22.4375 17.09375 -22.640625 C 16.8125 -22.859375 16.4375 -23.078125 16.078125 -23.15625 C 15.875 -23.21875 15.65625 -23.21875 15.5 -23.21875 C 15.078125 -23.21875 14.203125 -23.015625 13.921875 -23.015625 C 13.703125 -23.015625 13.421875 -23.078125 13.125 -23.078125 C 12.6875 -23.078125 12.40625 -22.859375 12.109375 -22.640625 C 11.546875 -22.21875 10.96875 -21.78125 10.453125 -21.28125 C 10.09375 -20.921875 9.734375 -20.625 9.375 -20.265625 C 9.09375 -19.984375 9.015625 -19.6875 8.796875 -19.46875 C 8.296875 -18.890625 7.640625 -18.6875 7.28125 -18.03125 C 7.140625 -17.75 6.78125 -17.453125 6.640625 -17.171875 C 6.5625 -16.953125 6.640625 -16.875 6.5625 -16.734375 C 6.484375 -16.65625 6.34375 -16.65625 6.28125 -16.59375 C 6.125 -16.515625 6.0625 -16.296875 5.984375 -16.234375 C 5.84375 -16.015625 5.625 -15.875 5.484375 -15.65625 C 5.40625 -15.5 5.1875 -15.140625 5.1875 -14.9375 C 5.1875 -14.78125 5.34375 -14.78125 5.34375 -14.640625 C 5.34375 -14.5625 5.1875 -14.5 5.046875 -14.5 C 4.6875 -14.5 4.609375 -14.359375 4.609375 -14.140625 C 4.609375 -13.703125 4.1875 -13.703125 4.1875 -13.421875 C 4.1875 -13.265625 4.25 -13.203125 4.25 -13.046875 C 4.25 -12.84375 3.96875 -12.484375 3.671875 -12.265625 C 3.390625 -12.046875 2.953125 -11.96875 2.953125 -11.6875 C 2.953125 -11.546875 3.09375 -11.390625 3.09375 -11.328125 C 3.09375 -11.109375 2.8125 -11.109375 2.59375 -11.03125 C 2.375 -10.8125 2.375 -10.390625 2.234375 -10.171875 C 1.953125 -9.453125 1.59375 -8.796875 1.296875 -8.078125 C 1.015625 -7.359375 0.71875 -6.484375 0.71875 -5.984375 C 0.71875 -5.34375 0.9375 -4.828125 1.078125 -4.1875 C 1.21875 -3.390625 1.375 -2.59375 1.734375 -1.953125 C 2.015625 -1.515625 2.53125 -1.078125 3.09375 -0.71875 C 3.671875 -0.4375 4.328125 -0.21875 4.90625 -0.21875 C 5.765625 -0.21875 6.5625 -0.71875 7.21875 -1.296875 C 7.71875 -1.796875 8.21875 -2.375 8.734375 -2.8125 C 9.8125 -4.03125 10.75 -5.265625 11.75 -6.5625 C 12.328125 -7.21875 12.84375 -7.9375 13.34375 -8.578125 C 13.5625 -8.796875 13.78125 -9.15625 13.921875 -9.15625 C 14.0625 -9.15625 14.140625 -9.09375 14.203125 -8.796875 C 14.28125 -8.359375 14.359375 -7.9375 14.421875 -7.5 C 14.5 -7.140625 14.5625 -6.78125 14.640625 -6.34375 C 14.859375 -5.703125 15.140625 -5.046875 15.4375 -4.328125 C 15.71875 -3.609375 16.234375 -3.03125 16.59375 -2.3125 C 16.875 -1.65625 17.234375 -1.078125 17.8125 -0.65625 C 18.25 -0.28125 18.96875 0 19.6875 0.21875 C 20.265625 0.359375 20.921875 0.4375 21.5 0.4375 Z M 26.765625 -32.671875 C 26.6875 -32.671875 26.6875 -32.671875 26.6875 -32.75 C 26.6875 -32.890625 26.90625 -33.25 27.046875 -33.25 C 27.125 -33.25 27.125 -33.171875 27.125 -33.109375 C 27.125 -32.96875 26.96875 -32.671875 26.765625 -32.671875 Z M 25.828125 -31.15625 C 25.75 -31.15625 25.75 -31.15625 25.75 -31.234375 C 25.75 -31.375 25.96875 -31.734375 26.1875 -31.734375 C 26.1875 -31.734375 26.1875 -31.734375 26.1875 -31.65625 C 26.1875 -31.453125 26.03125 -31.15625 25.828125 -31.15625 Z M 23.953125 -27.765625 C 23.796875 -27.765625 23.734375 -27.90625 23.734375 -28.125 C 23.734375 -28.34375 23.875 -28.640625 24.015625 -28.84375 C 24.15625 -29.203125 24.453125 -29.578125 24.59375 -29.71875 C 24.671875 -29.859375 25.09375 -30.4375 25.3125 -30.4375 C 25.390625 -30.4375 25.453125 -30.359375 25.453125 -30.21875 C 25.453125 -30 25.3125 -29.71875 25.09375 -29.421875 C 24.890625 -29.140625 24.59375 -28.78125 24.453125 -28.5625 C 24.375 -28.34375 24.15625 -27.765625 23.953125 -27.765625 Z M 20.765625 -19.46875 C 20.703125 -19.546875 20.765625 -19.765625 20.84375 -19.90625 C 20.984375 -20.265625 21.203125 -20.5625 21.34375 -20.5625 C 21.421875 -20.5625 21.5 -20.484375 21.5 -20.40625 C 21.421875 -20.125 21.0625 -19.46875 20.765625 -19.46875 Z M 3.96875 -4.03125 C 3.828125 -4.03125 3.75 -4.109375 3.75 -4.25 C 3.75 -5.125 4.1875 -5.625 4.546875 -6.34375 C 4.828125 -7 5.1875 -7.71875 5.546875 -8.359375 C 6.34375 -9.671875 7.21875 -10.890625 8.15625 -12.046875 C 8.9375 -13.125 9.875 -14.28125 10.890625 -15.359375 C 11.96875 -16.515625 13.125 -17.59375 14.28125 -18.390625 C 14.859375 -18.828125 15.578125 -19.109375 16.15625 -19.546875 C 16.234375 -19.625 16.515625 -19.828125 16.734375 -19.828125 C 16.8125 -19.828125 16.875 -19.765625 16.875 -19.546875 C 16.875 -19.25 16.078125 -18.609375 15.9375 -18.390625 C 15.578125 -17.8125 15.21875 -17.171875 14.859375 -16.65625 C 14.140625 -15.71875 13.421875 -14.640625 12.625 -13.625 C 11.390625 -11.90625 10.09375 -10.171875 8.875 -8.65625 C 7.9375 -7.578125 7.0625 -6.484375 5.984375 -5.484375 C 5.84375 -5.40625 4.609375 -4.03125 3.96875 -4.03125 Z M 16.234375 -7.28125 C 16.15625 -7.28125 16.15625 -7.421875 16.15625 -7.578125 C 16.15625 -8.734375 16.375 -10.171875 16.65625 -11.03125 C 16.875 -12.046875 17.3125 -13.046875 17.671875 -14 C 18.109375 -14.9375 18.46875 -15.875 18.96875 -16.734375 C 19.1875 -17.171875 19.46875 -17.59375 19.765625 -18.03125 C 19.828125 -18.171875 20.1875 -19.046875 20.40625 -19.046875 C 20.484375 -19.046875 20.484375 -18.96875 20.484375 -18.890625 C 20.484375 -18.609375 19.90625 -17.671875 19.90625 -17.59375 C 19.546875 -17.015625 19.25 -16.296875 18.96875 -15.71875 C 18.3125 -14.421875 17.8125 -13.046875 17.375 -11.6875 C 17.3125 -11.609375 17.015625 -10.53125 16.734375 -9.515625 C 16.4375 -8.4375 16.15625 -7.28125 16.234375 -7.28125 Z M 16.65625 -15.9375 C 16.59375 -15.9375 16.59375 -15.9375 16.59375 -16.015625 C 16.59375 -16.234375 17.09375 -16.8125 17.171875 -16.8125 C 17.234375 -16.65625 17.171875 -16.515625 17.09375 -16.296875 C 16.953125 -16.078125 16.734375 -15.9375 16.65625 -15.9375 Z M 13.34375 -11.171875 C 13.265625 -11.171875 13.203125 -11.25 13.203125 -11.328125 C 13.203125 -11.546875 13.78125 -12.265625 13.921875 -12.265625 C 14.0625 -12.265625 14.140625 -12.1875 14.140625 -11.96875 C 14.140625 -11.75 13.5625 -11.171875 13.34375 -11.171875 Z M 13.34375 -11.171875 "/></g></g></g><g fill="#fb6900" fill-opacity="1"><g transform="translate(587.402622, 428.123235)"><g><path d="M 2.953125 0.5 C 3.3125 0.5 3.890625 0.28125 4.109375 0.28125 C 4.46875 0.21875 4.90625 0.21875 5.265625 0.140625 C 5.625 0.140625 5.984375 0.078125 6.34375 -0.078125 C 6.859375 -0.140625 7.28125 -0.359375 7.71875 -0.578125 C 8.15625 -0.859375 8.4375 -1.078125 8.9375 -1.21875 C 9.453125 -1.4375 9.953125 -1.59375 10.390625 -1.796875 C 10.75 -2.015625 11.109375 -2.234375 11.390625 -2.53125 C 11.75 -2.8125 12.109375 -3.171875 12.328125 -3.609375 C 12.6875 -4.1875 13.125 -4.984375 13.125 -5.703125 C 13.125 -6.703125 12.40625 -7.359375 12.109375 -8.21875 C 11.828125 -9.015625 11.46875 -9.671875 10.890625 -10.234375 C 10.453125 -10.8125 9.8125 -11.328125 9.234375 -11.75 C 8.796875 -12.046875 8.359375 -12.328125 7.9375 -12.625 C 7.71875 -12.765625 7 -13.125 7 -13.421875 C 7 -13.921875 8.296875 -14.421875 8.65625 -14.640625 C 9.09375 -14.859375 9.453125 -15.140625 9.875 -15.359375 C 10.234375 -15.5 10.453125 -15.71875 10.75 -15.9375 C 11.546875 -16.375 12.40625 -16.65625 13.203125 -16.953125 C 14.9375 -17.59375 16.65625 -17.8125 18.46875 -18.109375 C 19.25 -18.25 19.90625 -18.53125 20.1875 -19.40625 C 20.265625 -19.625 20.34375 -20.125 20.34375 -20.34375 C 20.34375 -20.703125 20.046875 -20.984375 19.828125 -21.34375 C 19.625 -21.703125 19.25 -22 18.890625 -22.140625 C 18.53125 -22.28125 18.109375 -22.4375 17.75 -22.5 C 17.453125 -22.578125 17.015625 -22.578125 16.8125 -22.71875 C 16.59375 -22.9375 16.59375 -23.21875 16.296875 -23.15625 C 16.078125 -23.15625 15.875 -22.9375 15.65625 -22.859375 C 15.5 -22.796875 15.296875 -22.796875 15.140625 -22.71875 C 14.78125 -22.640625 14.359375 -22.578125 14 -22.4375 C 13.265625 -22.0625 12.625 -21.640625 11.828125 -21.34375 C 10.09375 -20.765625 8.4375 -19.828125 6.859375 -18.890625 C 6.203125 -18.46875 5.40625 -18.171875 4.828125 -17.671875 C 4.46875 -17.3125 3.53125 -16.375 3.53125 -15.796875 C 3.53125 -15.359375 3.828125 -15.4375 3.828125 -15.140625 C 3.828125 -14.640625 3.390625 -14.421875 3.390625 -13.921875 C 3.390625 -13.203125 3.890625 -12.328125 4.1875 -11.6875 C 4.46875 -10.890625 4.6875 -9.734375 5.546875 -9.296875 C 5.84375 -9.15625 6.203125 -9.09375 6.5625 -8.9375 C 6.921875 -8.734375 7.28125 -8.578125 7.640625 -8.4375 C 8.15625 -8.21875 9.453125 -8 9.453125 -7.5 C 9.453125 -6.859375 8 -6.0625 7.421875 -5.703125 C 7.0625 -5.40625 6.703125 -5.125 6.28125 -4.90625 C 5.984375 -4.6875 5.546875 -4.6875 5.265625 -4.46875 C 4.90625 -4.328125 4.765625 -4.109375 4.40625 -4.03125 C 3.96875 -3.890625 3.3125 -3.890625 3.171875 -3.890625 C 2.734375 -3.890625 2.671875 -4.03125 2.234375 -4.109375 C 1.953125 -4.25 1.796875 -4.109375 1.59375 -4.46875 C 1.515625 -4.609375 1.4375 -4.828125 1.4375 -4.984375 C 1.4375 -5.546875 1.796875 -6.125 1.953125 -6.703125 C 1.953125 -6.78125 1.953125 -6.859375 1.953125 -6.921875 C 1.953125 -7.28125 1.734375 -7.140625 1.734375 -7.5 C 1.734375 -7.796875 1.953125 -8.078125 1.953125 -8.359375 C 1.953125 -8.578125 1.875 -8.65625 1.796875 -8.65625 C 1.375 -8.65625 1.15625 -8.21875 0.9375 -7.796875 C 0.65625 -7.359375 0.4375 -6.859375 0.140625 -6.34375 C 0 -5.984375 -0.21875 -5.546875 -0.28125 -5.1875 C -0.359375 -5.046875 -0.65625 -4.109375 -0.65625 -3.828125 C -0.65625 -3.53125 -0.5 -3.25 -0.5 -2.734375 C -0.5 -2.3125 -0.28125 -1.796875 0 -1.375 C 0.21875 -1.015625 0.5 -0.65625 0.796875 -0.4375 C 1.078125 -0.21875 1.59375 0.21875 1.953125 0.21875 C 2.15625 0.21875 2.234375 0.078125 2.453125 0.078125 C 2.671875 0.078125 2.671875 0.359375 2.734375 0.4375 C 2.8125 0.5 2.890625 0.5 2.953125 0.5 Z M 11.828125 -19.984375 C 11.6875 -19.984375 11.609375 -19.984375 11.609375 -20.125 C 11.609375 -20.40625 12.6875 -20.921875 13.125 -20.921875 C 13.203125 -20.921875 13.265625 -20.921875 13.265625 -20.84375 C 13.265625 -20.625 12.984375 -20.40625 12.6875 -20.265625 C 12.40625 -20.125 12.046875 -19.984375 11.828125 -19.984375 Z M 10.3125 -19.40625 C 10.234375 -19.40625 10.171875 -19.46875 10.171875 -19.546875 C 10.171875 -19.625 10.53125 -19.765625 10.671875 -19.765625 C 10.75 -19.765625 10.8125 -19.765625 10.8125 -19.6875 C 10.8125 -19.546875 10.453125 -19.40625 10.3125 -19.40625 Z M 5.046875 -16.078125 C 4.90625 -16.078125 4.90625 -16.078125 4.90625 -16.15625 C 4.90625 -16.375 6.34375 -17.375 6.859375 -17.671875 C 7.28125 -17.953125 7.9375 -18.390625 8.515625 -18.6875 C 9.015625 -19.046875 9.453125 -19.25 9.671875 -19.25 C 9.734375 -19.25 9.8125 -19.25 9.8125 -19.1875 C 9.8125 -18.96875 9.09375 -18.609375 8.9375 -18.53125 C 8.4375 -18.171875 7.9375 -17.890625 7.421875 -17.59375 C 7.28125 -17.453125 6.703125 -17.015625 6.125 -16.65625 C 5.703125 -16.375 5.1875 -16.078125 5.046875 -16.078125 Z M 8.078125 -2.234375 C 8 -2.234375 7.9375 -2.234375 7.9375 -2.375 C 7.9375 -2.53125 8.796875 -3.03125 9.15625 -3.09375 C 9.234375 -3.09375 9.296875 -3.03125 9.296875 -2.953125 C 9.296875 -2.734375 8.4375 -2.234375 8.078125 -2.234375 Z M 4.765625 -0.859375 C 4.546875 -0.859375 4.03125 -0.859375 4.03125 -1.015625 C 4.03125 -1.078125 4.546875 -1.21875 4.984375 -1.375 C 5.34375 -1.4375 5.625 -1.59375 5.703125 -1.59375 C 5.984375 -1.65625 6.34375 -1.796875 6.640625 -1.875 C 6.78125 -1.953125 7.21875 -2.15625 7.359375 -2.15625 C 7.421875 -2.15625 7.578125 -2.15625 7.578125 -2.09375 C 7.578125 -1.953125 6.5625 -1.515625 6.484375 -1.4375 C 5.921875 -1.296875 5.265625 -0.859375 4.765625 -0.859375 Z M 4.765625 -0.859375 "/></g></g></g></svg>